<?xml version="1.0" encoding="UTF-8"?>
<svg width="32px" height="32px" viewBox="0 0 32 32" version="1.1" xmlns="http://www.w3.org/2000/svg" xmlns:xlink="http://www.w3.org/1999/xlink">
    <title>Cart</title>
    <g id="Cart" stroke="none" stroke-width="1" fill="none" fill-rule="evenodd">
        <g id="Group" transform="translate(5.000000, 4.000000)" fill="#000000" fill-rule="nonzero">
            <g id="Bag">
                <path d="M19.9343855,6.11668085 L15.5722892,6.11668085 L15.5722892,4.46808511 C15.5722892,2.02161702 13.4735422,0 10.9337349,0 C8.39392771,0 6.29518072,2.02161702 6.29518072,4.46808511 L6.29518072,6.11668085 L1.93308434,6.11668085 L0,23.9361702 L21.8674699,23.9361702 L19.9343855,6.11668085 Z M7.6753494,4.46808511 C7.6753494,2.71276596 9.11144578,1.32944681 10.9337349,1.32944681 C12.7560241,1.32944681 14.1921205,2.76561702 14.1921205,4.46808511 L14.1921205,6.11668085 L7.6753494,6.11668085 L7.6753494,4.46808511 Z M3.20245783,7.44714894 L6.29518072,7.44714894 L6.29518072,9.09574468 C5.79819277,9.30817787 5.52173494,9.78689362 5.52173494,10.3723404 C5.52173494,11.1702128 6.18438554,11.8085106 7.0126988,11.8085106 C7.84101205,11.8085106 8.50366265,11.1702128 8.50366265,10.3723404 C8.50366265,9.84076596 8.17233735,9.36204255 7.73021687,9.09574468 L7.73021687,7.44714894 L14.3018554,7.44714894 L14.3018554,9.09574468 C13.8048675,9.30817787 13.5284096,9.78689362 13.5284096,10.3723404 C13.5284096,11.1702128 14.1910602,11.8085106 15.0193735,11.8085106 C15.8476867,11.8085106 16.5103373,11.1702128 16.5103373,10.3723404 C16.5103373,9.84076596 16.179012,9.36204255 15.7368916,9.09574468 L15.7368916,7.44714894 L18.665012,7.44714894 L20.3216386,22.6067234 L1.49096386,22.6067234 L3.20245783,7.44714894 Z" id="Shape"></path>
            </g>
        </g>
    </g>
</svg>