<?xml version="1.0" encoding="UTF-8"?>
<svg width="32px" height="32px" viewBox="0 0 32 32" version="1.1" xmlns="http://www.w3.org/2000/svg" xmlns:xlink="http://www.w3.org/1999/xlink">
    <title>Location</title>
    <g id="Location" stroke="none" stroke-width="1" fill="none" fill-rule="evenodd">
        <g id="Group" transform="translate(8.000000, 4.000000)" fill="#222222" fill-rule="nonzero">
            <g id="Location">
                <path d="M8.5,-6.19659363e-15 C3.81848333,-6.19659363e-15 2.01320442e-15,3.99360465 2.01320442e-15,9.59302326 C2.01320442e-15,16.7456395 4.6529,22.4267442 8.01295,24.8366279 C8.30512333,25.0467035 8.69470667,25.0467035 8.98690833,24.8366279 C12.3469583,22.4281395 16.9998583,16.7459302 16.9998583,9.59418605 C16.9998583,3.99476744 13.181375,0.0011627907 8.49985833,0.0011627907 L8.5,-6.19659363e-15 Z M8.5,1.74418605 C12.2618167,1.74418605 15.3,4.77936047 15.3,9.59302326 C15.3,15.6113372 11.3919833,20.7063953 8.5,23.0104651 C5.60801667,20.7064535 1.7,15.6113372 1.7,9.59302326 C1.7,4.77936047 4.73818333,1.74418605 8.5,1.74418605 Z M8.5,4.06976744 C5.85038,4.06976744 3.68333333,6.29313953 3.68333333,9.01162791 C3.68333333,11.7301163 5.85038,13.9534884 8.5,13.9534884 C11.14962,13.9534884 13.3166667,11.7301163 13.3166667,9.01162791 C13.3166667,6.29313953 11.14962,4.06976744 8.5,4.06976744 Z M8.5,5.81395349 C10.2309967,5.81395349 11.6166667,7.23563953 11.6166667,9.01162791 C11.6166667,10.7876163 10.2309967,12.2093023 8.5,12.2093023 C6.76900333,12.2093023 5.38333333,10.7876163 5.38333333,9.01162791 C5.38333333,7.23563953 6.76900333,5.81395349 8.5,5.81395349 Z" id="Shape"></path>
            </g>
        </g>
    </g>
</svg>