<?xml version="1.0" encoding="UTF-8"?>
<svg width="32px" height="32px" viewBox="0 0 32 32" version="1.1" xmlns="http://www.w3.org/2000/svg" xmlns:xlink="http://www.w3.org/1999/xlink">
    <title>User</title>
    <g id="User" stroke="none" stroke-width="1" fill="none" fill-rule="evenodd">
        <g id="Group" transform="translate(4.000000, 4.000000)" fill="#222222" fill-rule="nonzero">
            <g id="user">
                <path d="M23.9164978,20.4234021 C22.8427033,16.1614979 19.535601,12.9201085 15.3851125,11.7643614 C17.2464305,10.6468698 18.4919192,8.63840733 18.4919192,6.3489408 C18.4919192,2.84824024 15.5801612,0 12,0 C8.41982015,0 5.50806216,2.84935556 5.50806216,6.34977729 C5.50806216,8.6381285 6.75340831,10.6476505 8.61486887,11.7651979 C4.46438043,12.921893 1.15739215,16.1623344 0.0834835636,20.4242386 C-0.129270673,21.2683382 0.0690026221,22.1527566 0.628194179,22.8498296 C1.21411026,23.5817562 2.09297013,24 3.03978337,24 L20.9580308,24 C21.9048441,24 22.7859567,23.5817562 23.36962,22.8498296 C23.9310409,22.1527566 24.1293119,21.2683382 23.9165549,20.4231512 L23.9164978,20.4234021 Z M6.93385689,6.35005611 C6.93385689,3.61730693 9.2073436,1.3952613 11.9999907,1.3952613 C14.7936644,1.3952613 17.0661245,3.61828283 17.0661245,6.35005611 C17.0661245,9.0828053 14.7948905,11.3037356 11.9999907,11.3037356 C9.20509085,11.3037356 6.93385689,9.08071408 6.93385689,6.35005611 Z M22.2488883,21.990701 C21.9403463,22.3762661 21.4580285,22.6060771 20.9590004,22.6060771 L3.03961228,22.6071662 C2.54058412,22.6071662 2.05826629,22.3773496 1.74972431,21.9917902 C1.45900476,21.6290891 1.35874288,21.1912436 1.46679246,20.7577479 C2.66311977,16.012075 6.99402828,12.6979112 11.9999935,12.6979112 C17.0059588,12.6979112 21.3366677,16.0123538 22.532054,20.7566326 C22.6412157,21.1890409 22.5398514,21.6268864 22.2491222,21.9906748 L22.2488883,21.990701 Z" id="Shape"></path>
            </g>
        </g>
    </g>
</svg>